<svg width="23" height="22" viewBox="0 0 23 22" fill="none" xmlns="http://www.w3.org/2000/svg">
<path d="M1.04999 1.05005H3.04999L5.70999 13.47C5.80757 13.9249 6.06066 14.3315 6.4257 14.6199C6.79074 14.9083 7.24489 15.0604 7.70999 15.05H17.49C17.9452 15.0493 18.3865 14.8933 18.741 14.6079C19.0956 14.3224 19.3421 13.9246 19.44 13.48L21.09 6.05005H4.11999M7.99999 20C7.99999 20.5523 7.55227 21 6.99999 21C6.4477 21 5.99999 20.5523 5.99999 20C5.99999 19.4478 6.4477 19 6.99999 19C7.55227 19 7.99999 19.4478 7.99999 20ZM19 20C19 20.5523 18.5523 21 18 21C17.4477 21 17 20.5523 17 20C17 19.4478 17.4477 19 18 19C18.5523 19 19 19.4478 19 20Z" stroke="black" stroke-width="2" stroke-linecap="round" stroke-linejoin="round"/>
</svg>
