<svg width="32" height="32" viewBox="0 0 32 32" fill="none" xmlns="http://www.w3.org/2000/svg">
<path d="M16 0C7.1776 0 0 7.1776 0 16C0 24.822 7.1776 32 16 32C24.8228 32 32 24.822 32 16C32 7.1776 24.8228 0 16 0ZM16 31.6C7.38453 31.6 0.4 24.6158 0.4 16C0.4 7.38418 7.38453 0.4 16 0.4C24.6151 0.4 31.6 7.38418 31.6 16C31.6 24.6158 24.6151 31.6 16 31.6ZM13.4699 14.4953C13.1868 14.2123 13.1868 13.7532 13.4699 13.4702C13.7529 13.1872 14.2119 13.1872 14.4949 13.4702C14.778 13.7532 14.778 14.2123 14.4949 14.4953C14.2119 14.7783 13.7529 14.778 13.4699 14.4953ZM17.5047 17.5047C17.7881 17.2213 18.2464 17.2213 18.5298 17.5047C18.8124 17.7881 18.8124 18.2464 18.5298 18.5298C18.2464 18.8132 17.7881 18.8132 17.5047 18.5298C17.2213 18.2464 17.2217 17.7881 17.5047 17.5047ZM17.5047 14.4953C17.2213 14.2123 17.2213 13.7532 17.5047 13.4702C17.7881 13.1872 18.2464 13.1872 18.5298 13.4702C18.8124 13.7532 18.8124 14.2123 18.5298 14.4953C18.2464 14.778 17.7881 14.778 17.5047 14.4953ZM13.4702 18.5298C13.1868 18.2468 13.1868 17.7881 13.4702 17.5047C13.7529 17.2213 14.2119 17.2213 14.4953 17.5047C14.778 17.7881 14.778 18.2468 14.4949 18.5298C14.2119 18.8124 13.7529 18.8124 13.4702 18.5298ZM13.1467 15.275C13.547 15.275 13.8716 15.5996 13.8716 16C13.8716 16.4004 13.547 16.7253 13.147 16.7253C12.7467 16.7253 12.422 16.4007 12.422 16C12.422 15.5996 12.7467 15.275 13.1467 15.275ZM18.8526 16.725C18.4519 16.725 18.1276 16.4 18.1276 15.9996C18.1276 15.5993 18.4519 15.2747 18.8526 15.2747C19.2526 15.2747 19.5776 15.5993 19.5776 15.9996C19.5776 16.4004 19.2526 16.725 18.8526 16.725ZM16.725 13.147C16.725 13.5474 16.4 13.8716 16 13.8716C15.5993 13.8716 15.275 13.5474 15.275 13.147C15.2747 12.747 15.5993 12.422 15.9996 12.422C16.4 12.4224 16.725 12.747 16.725 13.147ZM16.725 18.853C16.725 19.2533 16.4 19.5776 15.9996 19.5776C15.5993 19.5776 15.275 19.2533 15.275 18.853C15.275 18.4526 15.5993 18.128 16 18.128C16.4 18.128 16.725 18.4526 16.725 18.853ZM19.1431 26.8772C19.5445 28.5653 17.7362 30.0203 15.9996 30.0203C14.2645 30.0203 12.4548 28.5653 12.8576 26.8772C13.2615 25.1829 15.9996 20.6613 15.9996 20.6613C15.9996 20.6613 18.7388 25.1829 19.1431 26.8772ZM12.8572 5.12249C12.4555 3.43431 14.2638 1.97973 16.0004 1.97973C17.7362 1.97973 19.5452 3.43467 19.1424 5.12249C18.7388 6.81671 16 11.3387 16 11.3387C16 11.3387 13.2608 6.81671 12.8572 5.12249ZM30.118 16.0782C30.118 17.8137 28.6631 19.6231 26.9749 19.2206C25.2804 18.8167 20.7591 16.0782 20.7591 16.0782C20.7591 16.0782 25.2807 13.3387 26.9749 12.9351C28.6631 12.5333 30.118 14.3417 30.118 16.0782ZM11.2412 16.0775C11.2412 16.0775 6.71929 18.8174 5.02542 19.2206C3.33724 19.622 1.88231 17.814 1.88231 16.0775C1.88231 14.3424 3.33724 12.5326 5.02542 12.9351C6.71929 13.339 11.2412 16.0775 11.2412 16.0775ZM6.14151 21.4923C7.62524 20.5792 12.7588 19.3188 12.7588 19.3188C12.7588 19.3188 11.4987 24.453 10.586 25.9364C9.67644 27.4137 7.36889 27.1644 6.1408 25.9364C4.91378 24.7093 4.66311 22.4007 6.14151 21.4923ZM25.9687 10.5536C24.4853 11.466 19.3515 12.7271 19.3515 12.7271C19.3515 12.7271 20.6119 7.59289 21.5243 6.10916C22.4341 4.63182 24.7417 4.88142 25.9694 6.10951C27.1964 7.33618 27.4471 9.64444 25.9687 10.5536ZM25.9826 26.0612C24.7556 27.2882 22.4473 27.5388 21.5381 26.0604C20.6258 24.5771 19.3646 19.4436 19.3646 19.4436C19.3646 19.4436 24.4992 20.7036 25.9826 21.6167C27.4603 22.5259 27.2103 24.8331 25.9826 26.0612ZM6.01742 6.09493C7.24409 4.86791 9.55236 4.61724 10.4615 6.09529C11.3742 7.57902 12.635 12.7125 12.635 12.7125C12.635 12.7125 7.5008 11.4528 6.01707 10.5397C4.53973 9.63022 4.78933 7.32302 6.01742 6.09493Z" fill="url(#paint0_linear_43_209)"/>
<defs>
<linearGradient id="paint0_linear_43_209" x1="0" y1="0" x2="32" y2="0" gradientUnits="userSpaceOnUse">
<stop stop-color="#FBB040"/>
<stop offset="1" stop-color="#F9ED32"/>
</linearGradient>
</defs>
</svg>
