<svg width="212" height="300" viewBox="0 0 212 300" fill="none" xmlns="http://www.w3.org/2000/svg">
<rect width="212" height="300" rx="12" fill="#FA9B25"/>
<path d="M105.5 93C73.7945 93 48 118.795 48 150.5C48 182.204 73.7945 208 105.5 208C137.207 208 163 182.204 163 150.5C163 118.795 137.207 93 105.5 93ZM105.5 206.562C74.5382 206.562 49.4375 181.463 49.4375 150.5C49.4375 119.537 74.5382 94.4375 105.5 94.4375C136.461 94.4375 161.562 119.537 161.562 150.5C161.562 181.463 136.461 206.562 105.5 206.562ZM96.4073 145.092C95.3902 144.075 95.3902 142.426 96.4073 141.409C97.4244 140.391 99.0741 140.391 100.091 141.409C101.108 142.426 101.108 144.075 100.091 145.092C99.0741 146.11 97.4244 146.108 96.4073 145.092ZM110.908 155.908C111.926 154.889 113.573 154.889 114.591 155.908C115.607 156.926 115.607 158.573 114.591 159.591C113.573 160.61 111.926 160.61 110.908 159.591C109.889 158.573 109.89 156.926 110.908 155.908ZM110.908 145.092C109.889 144.075 109.889 142.426 110.908 141.409C111.926 140.391 113.573 140.391 114.591 141.409C115.607 142.426 115.607 144.075 114.591 145.092C113.573 146.108 111.926 146.108 110.908 145.092ZM96.4086 159.591C95.3902 158.574 95.3902 156.926 96.4086 155.908C97.4244 154.889 99.0741 154.889 100.092 155.908C101.108 156.926 101.108 158.574 100.091 159.591C99.0741 160.607 97.4244 160.607 96.4086 159.591ZM95.2458 147.895C96.6846 147.895 97.8512 149.061 97.8512 150.5C97.8512 151.939 96.6846 153.107 95.2471 153.107C93.8083 153.107 92.6417 151.94 92.6417 150.5C92.6417 149.061 93.8083 147.895 95.2458 147.895ZM115.752 153.105C114.312 153.105 113.146 151.938 113.146 150.499C113.146 149.06 114.312 147.893 115.752 147.893C117.189 147.893 118.357 149.06 118.357 150.499C118.357 151.939 117.189 153.105 115.752 153.105ZM108.105 140.247C108.105 141.686 106.938 142.851 105.5 142.851C104.06 142.851 102.895 141.686 102.895 140.247C102.893 138.81 104.06 137.642 105.499 137.642C106.938 137.643 108.105 138.81 108.105 140.247ZM108.105 160.753C108.105 162.192 106.938 163.357 105.499 163.357C104.06 163.357 102.895 162.192 102.895 160.753C102.895 159.314 104.06 158.147 105.5 158.147C106.938 158.147 108.105 159.314 108.105 160.753ZM116.796 189.59C118.238 195.657 111.739 200.885 105.499 200.885C99.2632 200.885 92.7593 195.657 94.207 189.59C95.6586 183.501 105.499 167.252 105.499 167.252C105.499 167.252 115.343 183.501 116.796 189.59ZM94.2057 111.409C92.7618 105.342 99.2606 100.115 105.501 100.115C111.739 100.115 118.241 105.343 116.793 111.409C115.343 117.498 105.5 133.748 105.5 133.748C105.5 133.748 95.656 117.498 94.2057 111.409ZM156.237 150.781C156.237 157.018 151.008 163.521 144.941 162.074C138.851 160.623 122.603 150.781 122.603 150.781C122.603 150.781 138.853 140.936 144.941 139.486C151.008 138.042 156.237 144.54 156.237 150.781ZM88.3982 150.779C88.3982 150.779 72.1474 160.625 66.0601 162.074C59.9932 163.517 54.7646 157.019 54.7646 150.779C54.7646 144.543 59.9932 138.039 66.0601 139.486C72.1474 140.937 88.3982 150.779 88.3982 150.779ZM70.0711 170.238C75.4032 166.956 93.8518 162.427 93.8518 162.427C93.8518 162.427 89.3233 180.878 86.0433 186.209C82.7747 191.518 74.4819 190.622 70.0685 186.209C65.6589 181.799 64.7581 173.503 70.0711 170.238ZM141.325 130.927C135.994 134.206 117.544 138.738 117.544 138.738C117.544 138.738 122.074 120.287 125.353 114.955C128.623 109.646 136.915 110.543 141.328 114.956C145.737 119.364 146.638 127.66 141.325 130.927ZM141.375 186.657C136.965 191.067 128.67 191.968 125.403 186.655C122.124 181.324 117.592 162.875 117.592 162.875C117.592 162.875 136.044 167.404 141.375 170.685C146.685 173.952 145.787 182.244 141.375 186.657ZM69.6251 114.904C74.0334 110.494 82.3288 109.593 85.5961 114.905C88.8761 120.237 93.4071 138.686 93.4071 138.686C93.4071 138.686 74.956 134.159 69.6238 130.877C64.3147 127.609 65.2117 119.317 69.6251 114.904Z" fill="white"/>
</svg>
