<svg width="448" height="300" viewBox="0 0 448 300" fill="none" xmlns="http://www.w3.org/2000/svg">
<rect width="448" height="300" rx="12" fill="#FBB040"/>
<path d="M74.5 108C51.6169 108 33 126.617 33 149.5C33 172.382 51.6169 191 74.5 191C97.384 191 116 172.382 116 149.5C116 126.617 97.384 108 74.5 108ZM74.5 189.963C52.1536 189.963 34.0375 171.847 34.0375 149.5C34.0375 127.153 52.1536 109.038 74.5 109.038C96.8454 109.038 114.963 127.153 114.963 149.5C114.963 171.847 96.8454 189.963 74.5 189.963ZM67.9375 145.597C67.2034 144.863 67.2034 143.672 67.9375 142.938C68.6716 142.204 69.8621 142.204 70.5962 142.938C71.3303 143.672 71.3303 144.863 70.5962 145.597C69.8621 146.331 68.6716 146.33 67.9375 145.597ZM78.4028 153.403C79.1379 152.668 80.3266 152.668 81.0616 153.403C81.7948 154.138 81.7948 155.327 81.0616 156.062C80.3266 156.797 79.1379 156.797 78.4028 156.062C77.6678 155.327 77.6688 154.138 78.4028 153.403ZM78.4028 145.597C77.6678 144.863 77.6678 143.672 78.4028 142.938C79.1379 142.204 80.3266 142.204 81.0616 142.938C81.7948 143.672 81.7948 144.863 81.0616 145.597C80.3266 146.33 79.1379 146.33 78.4028 145.597ZM67.9384 156.062C67.2034 155.328 67.2034 154.138 67.9384 153.403C68.6716 152.668 69.8621 152.668 70.5972 153.403C71.3303 154.138 71.3303 155.328 70.5962 156.062C69.8621 156.795 68.6716 156.795 67.9384 156.062ZM67.0992 147.62C68.1376 147.62 68.9796 148.462 68.9796 149.5C68.9796 150.538 68.1376 151.381 67.1001 151.381C66.0617 151.381 65.2197 150.539 65.2197 149.5C65.2197 148.462 66.0617 147.62 67.0992 147.62ZM81.899 151.38C80.8596 151.38 80.0186 150.537 80.0186 149.499C80.0186 148.461 80.8596 147.619 81.899 147.619C82.9365 147.619 83.7794 148.461 83.7794 149.499C83.7794 150.538 82.9365 151.38 81.899 151.38ZM76.3804 142.1C76.3804 143.139 75.5375 143.98 74.5 143.98C73.4607 143.98 72.6196 143.139 72.6196 142.1C72.6187 141.063 73.4607 140.22 74.4991 140.22C75.5375 140.221 76.3804 141.063 76.3804 142.1ZM76.3804 156.9C76.3804 157.938 75.5375 158.779 74.4991 158.779C73.4607 158.779 72.6196 157.938 72.6196 156.9C72.6196 155.861 73.4607 155.02 74.5 155.02C75.5375 155.02 76.3804 155.861 76.3804 156.9ZM82.6524 177.713C83.6936 182.091 79.0032 185.865 74.4991 185.865C69.9986 185.865 65.3045 182.091 66.3494 177.713C67.397 173.318 74.4991 161.59 74.4991 161.59C74.4991 161.59 81.6039 173.318 82.6524 177.713ZM66.3485 121.286C65.3064 116.908 69.9968 113.135 74.5009 113.135C79.0032 113.135 83.6955 116.909 82.6506 121.286C81.6039 125.681 74.5 137.41 74.5 137.41C74.5 137.41 67.3952 125.681 66.3485 121.286ZM111.119 149.703C111.119 154.204 107.345 158.897 102.966 157.853C98.5709 156.806 86.8439 149.703 86.8439 149.703C86.8439 149.703 98.5718 142.597 102.966 141.55C107.345 140.508 111.119 145.199 111.119 149.703ZM62.157 149.701C62.157 149.701 50.4282 156.808 46.0347 157.853C41.656 158.895 37.8822 154.205 37.8822 149.701C37.8822 145.201 41.656 140.506 46.0347 141.55C50.4282 142.598 62.157 149.701 62.157 149.701ZM48.9295 163.746C52.778 161.377 66.093 158.108 66.093 158.108C66.093 158.108 62.8247 171.425 60.4573 175.272C58.0983 179.104 52.1131 178.458 48.9277 175.272C45.7451 172.09 45.0949 166.102 48.9295 163.746ZM100.356 135.373C96.5088 137.74 83.1929 141.011 83.1929 141.011C83.1929 141.011 86.4621 127.694 88.8286 123.846C91.1885 120.014 97.1738 120.661 100.358 123.847C103.541 127.028 104.191 133.015 100.356 135.373ZM100.392 175.596C97.2097 178.779 91.2227 179.429 88.8645 175.594C86.4981 171.747 83.227 158.432 83.227 158.432C83.227 158.432 96.5448 161.7 100.392 164.068C104.225 166.426 103.577 172.411 100.392 175.596ZM48.6077 123.809C51.7894 120.626 57.7764 119.976 60.1345 123.81C62.5019 127.658 65.7721 140.973 65.7721 140.973C65.7721 140.973 52.4552 137.706 48.6068 135.337C44.7749 132.978 45.4223 126.994 48.6077 123.809Z" fill="white"/>
<path d="M143.39 167.5V138.035H131.77V131.187H163.414V138.035H151.794V167.5H143.39ZM166.238 167.5V139.591H173.967V147.476L172.878 145.194C173.708 143.222 175.04 141.735 176.872 140.732C178.705 139.695 180.936 139.176 183.564 139.176V146.646C183.219 146.612 182.907 146.594 182.631 146.594C182.354 146.56 182.06 146.542 181.749 146.542C179.535 146.542 177.737 147.182 176.354 148.462C175.005 149.707 174.331 151.661 174.331 154.324V167.5H166.238ZM200.935 167.915C197.961 167.915 195.315 167.292 192.998 166.047C190.715 164.802 188.9 163.108 187.551 160.964C186.237 158.785 185.58 156.312 185.58 153.546C185.58 150.744 186.237 148.272 187.551 146.127C188.9 143.949 190.715 142.254 192.998 141.044C195.315 139.799 197.961 139.176 200.935 139.176C203.874 139.176 206.503 139.799 208.82 141.044C211.137 142.254 212.952 143.931 214.267 146.076C215.581 148.22 216.238 150.71 216.238 153.546C216.238 156.312 215.581 158.785 214.267 160.964C212.952 163.108 211.137 164.802 208.82 166.047C206.503 167.292 203.874 167.915 200.935 167.915ZM200.935 161.275C202.284 161.275 203.494 160.964 204.566 160.341C205.638 159.719 206.485 158.837 207.108 157.696C207.73 156.52 208.042 155.136 208.042 153.546C208.042 151.92 207.73 150.537 207.108 149.396C206.485 148.254 205.638 147.372 204.566 146.75C203.494 146.127 202.284 145.816 200.935 145.816C199.586 145.816 198.376 146.127 197.304 146.75C196.231 147.372 195.367 148.254 194.71 149.396C194.087 150.537 193.776 151.92 193.776 153.546C193.776 155.136 194.087 156.52 194.71 157.696C195.367 158.837 196.231 159.719 197.304 160.341C198.376 160.964 199.586 161.275 200.935 161.275ZM232.904 167.915C230.587 167.915 228.512 167.465 226.679 166.566C224.881 165.667 223.48 164.301 222.477 162.468C221.474 160.601 220.973 158.232 220.973 155.361V139.591H229.065V154.168C229.065 156.485 229.549 158.197 230.518 159.304C231.521 160.376 232.921 160.912 234.72 160.912C235.965 160.912 237.071 160.652 238.04 160.134C239.008 159.58 239.769 158.75 240.322 157.644C240.875 156.502 241.152 155.085 241.152 153.39V139.591H249.245V167.5H241.567V159.822L242.968 162.053C242.034 163.99 240.651 165.46 238.818 166.462C237.019 167.431 235.048 167.915 232.904 167.915ZM272.719 167.915C270.368 167.915 268.31 167.396 266.546 166.359C264.782 165.321 263.399 163.748 262.396 161.638C261.428 159.494 260.944 156.796 260.944 153.546C260.944 150.26 261.41 147.563 262.344 145.453C263.278 143.344 264.627 141.77 266.39 140.732C268.154 139.695 270.264 139.176 272.719 139.176C275.348 139.176 277.699 139.781 279.774 140.992C281.884 142.168 283.544 143.828 284.754 145.972C285.999 148.116 286.622 150.641 286.622 153.546C286.622 156.485 285.999 159.027 284.754 161.171C283.544 163.315 281.884 164.975 279.774 166.151C277.699 167.327 275.348 167.915 272.719 167.915ZM256.223 177.564V139.591H263.952V145.297L263.797 153.597L264.315 161.846V177.564H256.223ZM271.319 161.275C272.667 161.275 273.86 160.964 274.898 160.341C275.97 159.719 276.817 158.837 277.44 157.696C278.097 156.52 278.425 155.136 278.425 153.546C278.425 151.92 278.097 150.537 277.44 149.396C276.817 148.254 275.97 147.372 274.898 146.75C273.86 146.127 272.667 145.816 271.319 145.816C269.97 145.816 268.759 146.127 267.687 146.75C266.615 147.372 265.768 148.254 265.145 149.396C264.523 150.537 264.212 151.92 264.212 153.546C264.212 155.136 264.523 156.52 265.145 157.696C265.768 158.837 266.615 159.719 267.687 160.341C268.759 160.964 269.97 161.275 271.319 161.275ZM291.52 167.5V139.591H299.613V167.5H291.52ZM295.567 135.701C294.079 135.701 292.869 135.268 291.935 134.404C291.002 133.539 290.535 132.467 290.535 131.187C290.535 129.908 291.002 128.836 291.935 127.971C292.869 127.107 294.079 126.674 295.567 126.674C297.054 126.674 298.264 127.089 299.198 127.919C300.132 128.715 300.598 129.752 300.598 131.032C300.598 132.381 300.132 133.505 299.198 134.404C298.299 135.268 297.088 135.701 295.567 135.701ZM320.092 167.915C317.083 167.915 314.403 167.31 312.051 166.099C309.7 164.854 307.85 163.142 306.501 160.964C305.187 158.785 304.53 156.312 304.53 153.546C304.53 150.744 305.187 148.272 306.501 146.127C307.85 143.949 309.7 142.254 312.051 141.044C314.403 139.799 317.083 139.176 320.092 139.176C323.032 139.176 325.591 139.799 327.77 141.044C329.948 142.254 331.556 144.001 332.594 146.283L326.317 149.655C325.591 148.341 324.674 147.372 323.568 146.75C322.496 146.127 321.32 145.816 320.04 145.816C318.657 145.816 317.412 146.127 316.305 146.75C315.199 147.372 314.317 148.254 313.66 149.396C313.037 150.537 312.726 151.92 312.726 153.546C312.726 155.171 313.037 156.554 313.66 157.696C314.317 158.837 315.199 159.719 316.305 160.341C317.412 160.964 318.657 161.275 320.04 161.275C321.32 161.275 322.496 160.981 323.568 160.393C324.674 159.771 325.591 158.785 326.317 157.436L332.594 160.86C331.556 163.108 329.948 164.854 327.77 166.099C325.591 167.31 323.032 167.915 320.092 167.915ZM349.66 167.915C346.686 167.915 344.04 167.292 341.723 166.047C339.441 164.802 337.625 163.108 336.276 160.964C334.962 158.785 334.305 156.312 334.305 153.546C334.305 150.744 334.962 148.272 336.276 146.127C337.625 143.949 339.441 142.254 341.723 141.044C344.04 139.799 346.686 139.176 349.66 139.176C352.6 139.176 355.228 139.799 357.545 141.044C359.862 142.254 361.678 143.931 362.992 146.076C364.306 148.22 364.963 150.71 364.963 153.546C364.963 156.312 364.306 158.785 362.992 160.964C361.678 163.108 359.862 164.802 357.545 166.047C355.228 167.292 352.6 167.915 349.66 167.915ZM349.66 161.275C351.009 161.275 352.219 160.964 353.291 160.341C354.363 159.719 355.211 158.837 355.833 157.696C356.456 156.52 356.767 155.136 356.767 153.546C356.767 151.92 356.456 150.537 355.833 149.396C355.211 148.254 354.363 147.372 353.291 146.75C352.219 146.127 351.009 145.816 349.66 145.816C348.311 145.816 347.101 146.127 346.029 146.75C344.957 147.372 344.092 148.254 343.435 149.396C342.812 150.537 342.501 151.92 342.501 153.546C342.501 155.136 342.812 156.52 343.435 157.696C344.092 158.837 344.957 159.719 346.029 160.341C347.101 160.964 348.311 161.275 349.66 161.275ZM383.134 167.915C380.159 167.915 377.514 167.292 375.197 166.047C372.914 164.802 371.099 163.108 369.75 160.964C368.436 158.785 367.779 156.312 367.779 153.546C367.779 150.744 368.436 148.272 369.75 146.127C371.099 143.949 372.914 142.254 375.197 141.044C377.514 139.799 380.159 139.176 383.134 139.176C386.073 139.176 388.701 139.799 391.019 141.044C393.336 142.254 395.151 143.931 396.465 146.076C397.78 148.22 398.437 150.71 398.437 153.546C398.437 156.312 397.78 158.785 396.465 160.964C395.151 163.108 393.336 164.802 391.019 166.047C388.701 167.292 386.073 167.915 383.134 167.915ZM383.134 161.275C384.482 161.275 385.693 160.964 386.765 160.341C387.837 159.719 388.684 158.837 389.307 157.696C389.929 156.52 390.24 155.136 390.24 153.546C390.24 151.92 389.929 150.537 389.307 149.396C388.684 148.254 387.837 147.372 386.765 146.75C385.693 146.127 384.482 145.816 383.134 145.816C381.785 145.816 380.574 146.127 379.502 146.75C378.43 147.372 377.566 148.254 376.909 149.396C376.286 150.537 375.975 151.92 375.975 153.546C375.975 155.136 376.286 156.52 376.909 157.696C377.566 158.837 378.43 159.719 379.502 160.341C380.574 160.964 381.785 161.275 383.134 161.275ZM403.327 167.5V129.009H411.42V167.5H403.327Z" fill="white"/>
</svg>
