<svg width="448" height="300" viewBox="0 0 448 300" fill="none" xmlns="http://www.w3.org/2000/svg">
<rect width="448" height="300" rx="12" fill="#FDD38A"/>
<path d="M48.98 102V60H68.06C72.62 60 76.64 60.88 80.12 62.64C83.6 64.36 86.32 66.78 88.28 69.9C90.24 73.02 91.22 76.72 91.22 81C91.22 85.24 90.24 88.94 88.28 92.1C86.32 95.22 83.6 97.66 80.12 99.42C76.64 101.14 72.62 102 68.06 102H48.98ZM58.7 94.02H67.58C70.38 94.02 72.8 93.5 74.84 92.46C76.92 91.38 78.52 89.86 79.64 87.9C80.8 85.94 81.38 83.64 81.38 81C81.38 78.32 80.8 76.02 79.64 74.1C78.52 72.14 76.92 70.64 74.84 69.6C72.8 68.52 70.38 67.98 67.58 67.98H58.7V94.02ZM106.89 76.92H127.11V84.48H106.89V76.92ZM107.61 94.2H130.47V102H97.9503V60H129.69V67.8H107.61V94.2ZM151.404 102.72C148.044 102.72 144.824 102.28 141.744 101.4C138.664 100.48 136.184 99.3 134.304 97.86L137.604 90.54C139.404 91.82 141.524 92.88 143.964 93.72C146.444 94.52 148.944 94.92 151.464 94.92C153.384 94.92 154.924 94.74 156.084 94.38C157.284 93.98 158.164 93.44 158.724 92.76C159.284 92.08 159.564 91.3 159.564 90.42C159.564 89.3 159.124 88.42 158.244 87.78C157.364 87.1 156.204 86.56 154.764 86.16C153.324 85.72 151.724 85.32 149.964 84.96C148.244 84.56 146.504 84.08 144.744 83.52C143.024 82.96 141.444 82.24 140.004 81.36C138.564 80.48 137.384 79.32 136.464 77.88C135.584 76.44 135.144 74.6 135.144 72.36C135.144 69.96 135.784 67.78 137.064 65.82C138.384 63.82 140.344 62.24 142.944 61.08C145.584 59.88 148.884 59.28 152.844 59.28C155.484 59.28 158.084 59.6 160.644 60.24C163.204 60.84 165.464 61.76 167.424 63L164.424 70.38C162.464 69.26 160.504 68.44 158.544 67.92C156.584 67.36 154.664 67.08 152.784 67.08C150.904 67.08 149.364 67.3 148.164 67.74C146.964 68.18 146.104 68.76 145.584 69.48C145.064 70.16 144.804 70.96 144.804 71.88C144.804 72.96 145.244 73.84 146.124 74.52C147.004 75.16 148.164 75.68 149.604 76.08C151.044 76.48 152.624 76.88 154.344 77.28C156.104 77.68 157.844 78.14 159.564 78.66C161.324 79.18 162.924 79.88 164.364 80.76C165.804 81.64 166.964 82.8 167.844 84.24C168.764 85.68 169.224 87.5 169.224 89.7C169.224 92.06 168.564 94.22 167.244 96.18C165.924 98.14 163.944 99.72 161.304 100.92C158.704 102.12 155.404 102.72 151.404 102.72Z" fill="white"/>
<path d="M48.98 172V130H69.5C74.78 130 78.74 131 81.38 133C84.06 135 85.4 137.64 85.4 140.92C85.4 143.12 84.86 145.04 83.78 146.68C82.7 148.28 81.22 149.52 79.34 150.4C77.46 151.28 75.3 151.72 72.86 151.72L74 149.26C76.64 149.26 78.98 149.7 81.02 150.58C83.06 151.42 84.64 152.68 85.76 154.36C86.92 156.04 87.5 158.1 87.5 160.54C87.5 164.14 86.08 166.96 83.24 169C80.4 171 76.22 172 70.7 172H48.98ZM58.64 164.68H69.98C72.5 164.68 74.4 164.28 75.68 163.48C77 162.64 77.66 161.32 77.66 159.52C77.66 157.76 77 156.46 75.68 155.62C74.4 154.74 72.5 154.3 69.98 154.3H57.92V147.22H68.3C70.66 147.22 72.46 146.82 73.7 146.02C74.98 145.18 75.62 143.92 75.62 142.24C75.62 140.6 74.98 139.38 73.7 138.58C72.46 137.74 70.66 137.32 68.3 137.32H58.64V164.68ZM114.659 172.72C111.339 172.72 108.259 172.18 105.419 171.1C102.619 170.02 100.179 168.5 98.0989 166.54C96.0589 164.58 94.4589 162.28 93.2989 159.64C92.1789 157 91.6189 154.12 91.6189 151C91.6189 147.88 92.1789 145 93.2989 142.36C94.4589 139.72 96.0789 137.42 98.1589 135.46C100.239 133.5 102.679 131.98 105.479 130.9C108.279 129.82 111.319 129.28 114.599 129.28C117.919 129.28 120.959 129.82 123.719 130.9C126.519 131.98 128.939 133.5 130.979 135.46C133.059 137.42 134.679 139.72 135.839 142.36C136.999 144.96 137.579 147.84 137.579 151C137.579 154.12 136.999 157.02 135.839 159.7C134.679 162.34 133.059 164.64 130.979 166.6C128.939 168.52 126.519 170.02 123.719 171.1C120.959 172.18 117.939 172.72 114.659 172.72ZM114.599 164.44C116.479 164.44 118.199 164.12 119.759 163.48C121.359 162.84 122.759 161.92 123.959 160.72C125.159 159.52 126.079 158.1 126.719 156.46C127.399 154.82 127.739 153 127.739 151C127.739 149 127.399 147.18 126.719 145.54C126.079 143.9 125.159 142.48 123.959 141.28C122.799 140.08 121.419 139.16 119.819 138.52C118.219 137.88 116.479 137.56 114.599 137.56C112.719 137.56 110.979 137.88 109.379 138.52C107.819 139.16 106.439 140.08 105.239 141.28C104.039 142.48 103.099 143.9 102.419 145.54C101.779 147.18 101.459 149 101.459 151C101.459 152.96 101.779 154.78 102.419 156.46C103.099 158.1 104.019 159.52 105.179 160.72C106.379 161.92 107.779 162.84 109.379 163.48C110.979 164.12 112.719 164.44 114.599 164.44ZM144.284 172V130H154.004V172H144.284ZM177.171 172.72C173.811 172.72 170.591 172.28 167.511 171.4C164.431 170.48 161.951 169.3 160.071 167.86L163.371 160.54C165.171 161.82 167.291 162.88 169.731 163.72C172.211 164.52 174.711 164.92 177.231 164.92C179.151 164.92 180.691 164.74 181.851 164.38C183.051 163.98 183.931 163.44 184.491 162.76C185.051 162.08 185.331 161.3 185.331 160.42C185.331 159.3 184.891 158.42 184.011 157.78C183.131 157.1 181.971 156.56 180.531 156.16C179.091 155.72 177.491 155.32 175.731 154.96C174.011 154.56 172.271 154.08 170.511 153.52C168.791 152.96 167.211 152.24 165.771 151.36C164.331 150.48 163.151 149.32 162.231 147.88C161.351 146.44 160.911 144.6 160.911 142.36C160.911 139.96 161.551 137.78 162.831 135.82C164.151 133.82 166.111 132.24 168.711 131.08C171.351 129.88 174.651 129.28 178.611 129.28C181.251 129.28 183.851 129.6 186.411 130.24C188.971 130.84 191.231 131.76 193.191 133L190.191 140.38C188.231 139.26 186.271 138.44 184.311 137.92C182.351 137.36 180.431 137.08 178.551 137.08C176.671 137.08 175.131 137.3 173.931 137.74C172.731 138.18 171.871 138.76 171.351 139.48C170.831 140.16 170.571 140.96 170.571 141.88C170.571 142.96 171.011 143.84 171.891 144.52C172.771 145.16 173.931 145.68 175.371 146.08C176.811 146.48 178.391 146.88 180.111 147.28C181.871 147.68 183.611 148.14 185.331 148.66C187.091 149.18 188.691 149.88 190.131 150.76C191.571 151.64 192.731 152.8 193.611 154.24C194.531 155.68 194.991 157.5 194.991 159.7C194.991 162.06 194.331 164.22 193.011 166.18C191.691 168.14 189.711 169.72 187.071 170.92C184.471 172.12 181.171 172.72 177.171 172.72ZM214.833 172.72C211.473 172.72 208.253 172.28 205.173 171.4C202.093 170.48 199.613 169.3 197.733 167.86L201.033 160.54C202.833 161.82 204.953 162.88 207.393 163.72C209.873 164.52 212.373 164.92 214.893 164.92C216.813 164.92 218.353 164.74 219.513 164.38C220.713 163.98 221.593 163.44 222.153 162.76C222.713 162.08 222.993 161.3 222.993 160.42C222.993 159.3 222.553 158.42 221.673 157.78C220.793 157.1 219.633 156.56 218.193 156.16C216.753 155.72 215.153 155.32 213.393 154.96C211.673 154.56 209.933 154.08 208.173 153.52C206.453 152.96 204.873 152.24 203.433 151.36C201.993 150.48 200.813 149.32 199.893 147.88C199.013 146.44 198.573 144.6 198.573 142.36C198.573 139.96 199.213 137.78 200.493 135.82C201.813 133.82 203.773 132.24 206.373 131.08C209.013 129.88 212.313 129.28 216.273 129.28C218.913 129.28 221.513 129.6 224.073 130.24C226.633 130.84 228.893 131.76 230.853 133L227.853 140.38C225.893 139.26 223.933 138.44 221.973 137.92C220.013 137.36 218.093 137.08 216.213 137.08C214.333 137.08 212.793 137.3 211.593 137.74C210.393 138.18 209.533 138.76 209.013 139.48C208.493 140.16 208.233 140.96 208.233 141.88C208.233 142.96 208.673 143.84 209.553 144.52C210.433 145.16 211.593 145.68 213.033 146.08C214.473 146.48 216.053 146.88 217.773 147.28C219.533 147.68 221.273 148.14 222.993 148.66C224.753 149.18 226.353 149.88 227.793 150.76C229.233 151.64 230.393 152.8 231.273 154.24C232.193 155.68 232.653 157.5 232.653 159.7C232.653 162.06 231.993 164.22 230.673 166.18C229.353 168.14 227.373 169.72 224.733 170.92C222.133 172.12 218.833 172.72 214.833 172.72ZM259.095 172.72C255.775 172.72 252.695 172.18 249.855 171.1C247.055 170.02 244.615 168.5 242.535 166.54C240.495 164.58 238.895 162.28 237.735 159.64C236.615 157 236.055 154.12 236.055 151C236.055 147.88 236.615 145 237.735 142.36C238.895 139.72 240.515 137.42 242.595 135.46C244.675 133.5 247.115 131.98 249.915 130.9C252.715 129.82 255.755 129.28 259.035 129.28C262.355 129.28 265.395 129.82 268.155 130.9C270.955 131.98 273.375 133.5 275.415 135.46C277.495 137.42 279.115 139.72 280.275 142.36C281.435 144.96 282.015 147.84 282.015 151C282.015 154.12 281.435 157.02 280.275 159.7C279.115 162.34 277.495 164.64 275.415 166.6C273.375 168.52 270.955 170.02 268.155 171.1C265.395 172.18 262.375 172.72 259.095 172.72ZM259.035 164.44C260.915 164.44 262.635 164.12 264.195 163.48C265.795 162.84 267.195 161.92 268.395 160.72C269.595 159.52 270.515 158.1 271.155 156.46C271.835 154.82 272.175 153 272.175 151C272.175 149 271.835 147.18 271.155 145.54C270.515 143.9 269.595 142.48 268.395 141.28C267.235 140.08 265.855 139.16 264.255 138.52C262.655 137.88 260.915 137.56 259.035 137.56C257.155 137.56 255.415 137.88 253.815 138.52C252.255 139.16 250.875 140.08 249.675 141.28C248.475 142.48 247.535 143.9 246.855 145.54C246.215 147.18 245.895 149 245.895 151C245.895 152.96 246.215 154.78 246.855 156.46C247.535 158.1 248.455 159.52 249.615 160.72C250.815 161.92 252.215 162.84 253.815 163.48C255.415 164.12 257.155 164.44 259.035 164.44ZM288.72 172V130H296.76L321.54 160.24H317.64V130H327.24V172H319.26L294.42 141.76H298.32V172H288.72ZM350.377 172.72C347.017 172.72 343.797 172.28 340.717 171.4C337.637 170.48 335.157 169.3 333.277 167.86L336.577 160.54C338.377 161.82 340.497 162.88 342.937 163.72C345.417 164.52 347.917 164.92 350.437 164.92C352.357 164.92 353.897 164.74 355.057 164.38C356.257 163.98 357.137 163.44 357.697 162.76C358.257 162.08 358.537 161.3 358.537 160.42C358.537 159.3 358.097 158.42 357.217 157.78C356.337 157.1 355.177 156.56 353.737 156.16C352.297 155.72 350.697 155.32 348.937 154.96C347.217 154.56 345.477 154.08 343.717 153.52C341.997 152.96 340.417 152.24 338.977 151.36C337.537 150.48 336.357 149.32 335.437 147.88C334.557 146.44 334.117 144.6 334.117 142.36C334.117 139.96 334.757 137.78 336.037 135.82C337.357 133.82 339.317 132.24 341.917 131.08C344.557 129.88 347.857 129.28 351.817 129.28C354.457 129.28 357.057 129.6 359.617 130.24C362.177 130.84 364.437 131.76 366.397 133L363.397 140.38C361.437 139.26 359.477 138.44 357.517 137.92C355.557 137.36 353.637 137.08 351.757 137.08C349.877 137.08 348.337 137.3 347.137 137.74C345.937 138.18 345.077 138.76 344.557 139.48C344.037 140.16 343.777 140.96 343.777 141.88C343.777 142.96 344.217 143.84 345.097 144.52C345.977 145.16 347.137 145.68 348.577 146.08C350.017 146.48 351.597 146.88 353.317 147.28C355.077 147.68 356.817 148.14 358.537 148.66C360.297 149.18 361.897 149.88 363.337 150.76C364.777 151.64 365.937 152.8 366.817 154.24C367.737 155.68 368.197 157.5 368.197 159.7C368.197 162.06 367.537 164.22 366.217 166.18C364.897 168.14 362.917 169.72 360.277 170.92C357.677 172.12 354.377 172.72 350.377 172.72Z" fill="white"/>
<path d="M77.78 200H87.5V242H77.78V200ZM58.7 242H48.98V200H58.7V242ZM78.5 224.78H57.98V216.56H78.5V224.78ZM105.777 216.92H125.997V224.48H105.777V216.92ZM106.497 234.2H129.357V242H96.837V200H128.577V207.8H106.497V234.2ZM130.971 242L149.691 200H159.291L178.071 242H167.871L152.511 204.92H156.351L140.931 242H130.971ZM140.331 233L142.911 225.62H164.511L167.151 233H140.331ZM181.828 242V200H191.548V234.08H212.608V242H181.828ZM222.214 242V207.92H208.774V200H245.374V207.92H231.934V242H222.214ZM278.803 200H288.523V242H278.803V200ZM259.723 242H250.003V200H259.723V242ZM279.523 224.78H259.003V216.56H279.523V224.78ZM308.3 242V224.84L310.52 230.72L292.04 200H302.36L316.52 223.58H310.58L324.8 200H334.34L315.86 230.72L318.02 224.84V242H308.3Z" fill="white"/>
</svg>
